<svg id="Capa_1" enable-background="new 0 0 502 502" height="512" viewBox="0 0 502 502" width="512" xmlns="http://www.w3.org/2000/svg" xmlns:xlink="http://www.w3.org/1999/xlink"><linearGradient id="lg1"><stop offset="0" stop-color="#ec6f80"/><stop offset="1" stop-color="#eca0aa"/></linearGradient><linearGradient id="SVGID_1_" gradientUnits="userSpaceOnUse" x1="288.001" x2="288.001" xlink:href="#lg1" y1="402.075" y2="469.086"/><linearGradient id="SVGID_2_" gradientUnits="userSpaceOnUse" x1="293.264" x2="293.264" xlink:href="#lg1" y1="118.698" y2="37.521"/><linearGradient id="SVGID_3_" gradientUnits="userSpaceOnUse" x1="117.295" x2="-67.314" xlink:href="#lg1" y1="254.108" y2="254.108"/><linearGradient id="SVGID_4_" gradientUnits="userSpaceOnUse" x1="298.932" x2="298.932" y1="416.894" y2="66.83"><stop offset="0" stop-color="#f4d952"/><stop offset="1" stop-color="#f9edaf"/></linearGradient><linearGradient id="SVGID_5_" gradientUnits="userSpaceOnUse" x1="277.101" x2="155.537" xlink:href="#lg1" y1="291.508" y2="291.508"/><g><path d="m209.17 386.147c12.755 30.321 27.045 53.759 46.384 70.511 18.559 16.077 46.335 16.077 64.895 0 19.339-16.752 33.629-40.19 46.384-70.511z" fill="url(#SVGID_1_)"/><path d="m406.376 115.853c-12.755-30.321-27.045-53.759-46.384-70.511-18.559-16.077-46.335-16.077-64.894 0-6.857 5.94-13.069 12.737-18.813 20.367-5.131-2.826-10.342-5.287-15.681-7.326-22.939-8.76-49.039.74-60.981 22.195-12.443 22.356-17.855 49.268-19.471 82.123z" fill="url(#SVGID_2_)"/><path d="m127.521 151.818c-37.384-37.384-88.165-47.214-113.422-21.956-24.009 24.009-15.781 68.475 12.79 103.279 10.041 12.232 10.044 29.699.007 41.935-28.553 34.81-36.764 79.312-12.798 103.278 25.258 25.258 76.039 15.428 113.422-21.956 32.498-32.498 44.159-75.112 30.063-102.29 14.097-27.178 2.436-69.791-30.062-102.29z" fill="url(#SVGID_3_)"/><path d="m95.864 254.108c0 89.904 101.534 162.786 243.351 162.786 89.904 0 162.786-72.882 162.786-162.786s-72.882-162.786-162.786-162.786c-89.905.001-243.351 72.882-243.351 162.786z" fill="url(#SVGID_4_)"/><g fill="#efc534"><path d="m248.3 219.116c-2.943 0-5.886-1.123-8.132-3.368-16.669-16.67-16.669-43.793 0-60.463 4.491-4.49 11.772-4.49 16.264 0 4.491 4.491 4.491 11.772 0 16.264-7.702 7.702-7.702 20.233 0 27.936 4.491 4.491 4.491 11.772 0 16.264-2.246 2.244-5.189 3.367-8.132 3.367z"/><path d="m282.424 382.028c-2.943 0-5.886-1.123-8.131-3.368-8.076-8.075-12.523-18.812-12.523-30.231s4.447-22.155 12.523-30.231c4.491-4.49 11.773-4.49 16.263 0 4.491 4.491 4.492 11.772.001 16.264-3.731 3.732-5.786 8.691-5.786 13.968s2.055 10.237 5.786 13.968c4.491 4.491 4.492 11.772.001 16.264-2.247 2.243-5.191 3.366-8.134 3.366z"/><path d="m157.584 265.608c-2.943 0-5.886-1.123-8.132-3.368-16.669-16.67-16.669-43.793 0-60.463 4.491-4.49 11.773-4.49 16.264 0 4.491 4.491 4.491 11.773 0 16.264-7.702 7.702-7.702 20.233 0 27.936 4.491 4.491 4.491 11.772 0 16.264-2.246 2.244-5.189 3.367-8.132 3.367z"/></g><path d="m273.033 255.85c-25.877-25.877-59.268-34.441-74.58-19.129-9.773 9.773-9.806 26.913-1.832 44.761-18.631 6.94-31.02 19.21-31.02 33.199 0 21.655 29.667 39.21 66.262 39.21 28.435 0 52.678-10.601 62.08-25.486 12.769-16.078 3.885-47.76-20.91-72.555z" fill="url(#SVGID_5_)"/><path d="m69.696 295.682c4.928 17.146 12.868 33.313 23.388 48.345-9.916 7.435-19.843 12.098-28.659 14.45-7.057 1.882-12.025 8.181-12.025 15.484 0 10.482 9.924 18.158 20.055 15.466 18.703-4.97 38.24-16.203 55.066-33.029 3.264-3.264 6.308-6.634 9.147-10.077-17.464-17.563-29.842-37.616-36.11-59.234-2.278-7.855-9.98-12.832-18.048-11.493-9.392 1.559-15.444 10.939-12.814 20.088z" fill="#e05d6f"/><g fill="#fffde3"><path d="m422.904 157.256c-2.153 0-4.322-.691-6.15-2.12-2.895-2.263-5.922-4.422-8.999-6.42-4.632-3.008-5.948-9.201-2.94-13.833s9.201-5.949 13.833-2.94c3.563 2.314 7.069 4.814 10.42 7.434 4.352 3.401 5.123 9.686 1.722 14.037-1.971 2.523-4.914 3.842-7.886 3.842z"/><path d="m376.663 133.629c-.918 0-1.852-.128-2.778-.395-11.293-3.26-22.958-4.912-34.67-4.912-2.783 0-5.712.091-8.706.271-5.508.317-10.251-3.871-10.582-9.383-.331-5.513 3.869-10.25 9.382-10.582 3.392-.203 6.724-.307 9.905-.307 13.589 0 27.12 1.916 40.216 5.696 5.306 1.531 8.366 7.074 6.835 12.38-1.264 4.381-5.261 7.232-9.602 7.232z"/></g><g><ellipse cx="301.938" cy="258.742" fill="#eaadcd" rx="14.936" ry="12.003"/><ellipse cx="477.709" cy="258.742" fill="#eaadcd" rx="14.936" ry="12.003"/><circle cx="327.545" cy="229.124" fill="#fff" r="29.618"/><ellipse cx="339.51" cy="229.124" fill="#3b3b44" rx="17.652" ry="17.652" transform="matrix(.263 -.965 .965 .263 29.233 496.506)"/><circle cx="452.102" cy="229.124" fill="#fff" r="29.618"/><g fill="#3b3b44"><ellipse cx="464.005" cy="229.124" rx="17.652" ry="17.652" transform="matrix(.676 -.737 .737 .676 -18.439 416.331)"/><ellipse cx="389.823" cy="251.576" rx="13.252" ry="17.352"/></g></g></g></svg>